# xmcd
#
# Track frame offsets: 
#        150
#        8652
#        18431
#        26183
#        36417
#        56678
#        69391
#        77912
#        87111
#        104599
#        110750
#        117948
#        123007
#
# Disc length: 1740 seconds
#
# Revision: 0
# Processed by: cddbd v1.5.2PL0 Copyright (c) Steve Scherf et al.
# Submitted via: ExactAudioCopy v0.90b4
#
DISCID=a806ca0d
DTITLE=Scott Linker - Some Serious Analog
DYEAR=2014
DGENRE=Blues
TTITLE0=Wabbit Season
TTITLE1=J-Links
TTITLE2=Death Valley Days Are Here Again
TTITLE3=Stagger Lee
TTITLE4=Rough Knight in Tarnished Amour
TTITLE5=I Like Mine Dixix Fried
TTITLE6=Perfect Match
TTITLE7=Living On Flattery
TTITLE8=Baraboo Outboard
TTITLE9=F.T.D. Rebate
TTITLE10=Hello Stephanie
TTITLE11=J-Links, Pt.II
TTITLE12=Sleep My Child
EXTD=
EXTT0=
EXTT1=
EXTT2=
EXTT3=
EXTT4=
EXTT5=
EXTT6=
EXTT7=
EXTT8=
EXTT9=
EXTT10=
EXTT11=
EXTT12=
PLAYORDER=
